<mxfile host="app.diagrams.net" modified="2020-05-21T15:42:51.622Z" agent="5.0 (Macintosh; Intel Mac OS X 10_15_4) AppleWebKit/605.1.15 (KHTML, like Gecko) Version/13.1 Safari/605.1.15" etag="GGj7weOhbeMCQSQ47fUq" version="13.1.3" type="github">
  <diagram id="GxizrZons7TpUAIUkkWy" name="01-State">
    <mxGraphModel dx="1026" dy="475" grid="1" gridSize="10" guides="1" tooltips="1" connect="1" arrows="1" fold="1" page="1" pageScale="1" pageWidth="827" pageHeight="1169" math="0" shadow="0">
      <root>
        <mxCell id="0" />
        <mxCell id="1" parent="0" />
        <mxCell id="oV4nk1PkBAIt3mty0o6z-5" value="Props" style="text;html=1;strokeColor=#6c8ebf;fillColor=#dae8fc;align=center;verticalAlign=middle;whiteSpace=wrap;rounded=0;fontFamily=Verdana;fontSize=20;" vertex="1" parent="1">
          <mxGeometry x="40" y="160" width="160" height="80" as="geometry" />
        </mxCell>
        <mxCell id="oV4nk1PkBAIt3mty0o6z-7" value="" style="rounded=0;comic=1;strokeWidth=2;endArrow=blockThin;html=1;fontFamily=Comic Sans MS;fontStyle=1;" edge="1" parent="1">
          <mxGeometry width="50" height="50" relative="1" as="geometry">
            <mxPoint x="210" y="200" as="sourcePoint" />
            <mxPoint x="350" y="200" as="targetPoint" />
            <Array as="points">
              <mxPoint x="220" y="200" />
            </Array>
          </mxGeometry>
        </mxCell>
        <mxCell id="oV4nk1PkBAIt3mty0o6z-8" value="&lt;font style=&quot;font-size: 16px&quot;&gt;System to pass data from a parent to a child.&lt;/font&gt;" style="text;html=1;strokeColor=none;fillColor=none;align=center;verticalAlign=middle;whiteSpace=wrap;rounded=0;fontFamily=Verdana;fontSize=20;" vertex="1" parent="1">
          <mxGeometry x="350" y="160" width="450" height="80" as="geometry" />
        </mxCell>
        <mxCell id="oV4nk1PkBAIt3mty0o6z-11" value="State" style="text;html=1;strokeColor=#6c8ebf;fillColor=#dae8fc;align=center;verticalAlign=middle;whiteSpace=wrap;rounded=0;fontFamily=Verdana;fontSize=20;" vertex="1" parent="1">
          <mxGeometry x="40" y="280" width="160" height="80" as="geometry" />
        </mxCell>
        <mxCell id="oV4nk1PkBAIt3mty0o6z-12" value="" style="rounded=0;comic=1;strokeWidth=2;endArrow=blockThin;html=1;fontFamily=Comic Sans MS;fontStyle=1;" edge="1" parent="1">
          <mxGeometry width="50" height="50" relative="1" as="geometry">
            <mxPoint x="200" y="319.5" as="sourcePoint" />
            <mxPoint x="340" y="320" as="targetPoint" />
            <Array as="points">
              <mxPoint x="200" y="319.5" />
            </Array>
          </mxGeometry>
        </mxCell>
        <mxCell id="oV4nk1PkBAIt3mty0o6z-14" value="&lt;font style=&quot;font-size: 16px&quot;&gt;System to track a piece of data that will change over time. If that data changes our app will &#39;renderer&#39;.&lt;/font&gt;" style="text;html=1;strokeColor=none;fillColor=none;align=center;verticalAlign=middle;whiteSpace=wrap;rounded=0;fontFamily=Verdana;fontSize=20;" vertex="1" parent="1">
          <mxGeometry x="360" y="280" width="440" height="80" as="geometry" />
        </mxCell>
      </root>
    </mxGraphModel>
  </diagram>
</mxfile>
